<?xml version="1.0" encoding="utf-8"?>
<!-- Generator: Adobe Illustrator 23.0.1, SVG Export Plug-In . SVG Version: 6.00 Build 0)  -->
<svg version="1.1" id="Camada_1" xmlns="http://www.w3.org/2000/svg" xmlns:xlink="http://www.w3.org/1999/xlink" x="0px" y="0px"
	 viewBox="0 0 21 20" style="enable-background:new 0 0 21 20;" xml:space="preserve">
<g>
	<g>
		<path d="M16.6,19.3H4.4c-1.5,0-2.8-1.2-2.8-2.7V5c0-1.5,1.2-2.7,2.8-2.7h12.3c1.5,0,2.8,1.2,2.8,2.7v11.7
			C19.4,18.1,18.1,19.3,16.6,19.3z M4.4,4.3C4,4.3,3.6,4.6,3.6,5v11.7c0,0.4,0.3,0.7,0.8,0.7h12.3c0.4,0,0.8-0.3,0.8-0.7V5
			c0-0.4-0.3-0.7-0.8-0.7H4.4z"/>
	</g>
	<g>
		<path d="M14,6c-0.6,0-1-0.4-1-1V1.7c0-0.6,0.4-1,1-1s1,0.4,1,1V5C15,5.6,14.6,6,14,6z"/>
	</g>
	<g>
		<path d="M7,6C6.4,6,6,5.6,6,5V1.7c0-0.6,0.4-1,1-1s1,0.4,1,1V5C8,5.6,7.6,6,7,6z"/>
	</g>
	<g>
		<path d="M18.4,9.3H2.6c-0.6,0-1-0.4-1-1s0.4-1,1-1h15.8c0.6,0,1,0.4,1,1S18.9,9.3,18.4,9.3z"/>
	</g>
</g>
</svg>
