<?xml version="1.0" encoding="utf-8"?>
<!-- Generator: Adobe Illustrator 23.0.1, SVG Export Plug-In . SVG Version: 6.00 Build 0)  -->
<svg version="1.1" id="Camada_1" xmlns="http://www.w3.org/2000/svg" xmlns:xlink="http://www.w3.org/1999/xlink" x="0px" y="0px"
	 viewBox="0 0 24 24" style="enable-background:new 0 0 24 24;" xml:space="preserve">
<g>
	<g>
		<path d="M18,23H4c-0.8,0-1.6-0.3-2.1-0.9C1.3,21.6,1,20.8,1,20V6c0-0.8,0.3-1.6,0.9-2.1C2.4,3.3,3.2,3,4,3h7c0.6,0,1,0.4,1,1
			s-0.4,1-1,1H4C3.7,5,3.5,5.1,3.3,5.3C3.1,5.5,3,5.7,3,6v14c0,0.3,0.1,0.5,0.3,0.7C3.5,20.9,3.7,21,4,21h14c0.3,0,0.5-0.1,0.7-0.3
			S19,20.3,19,20v-7c0-0.6,0.4-1,1-1s1,0.4,1,1v7c0,0.8-0.3,1.6-0.9,2.1S18.8,23,18,23z"/>
	</g>
	<g>
		<path d="M8,17c-0.3,0-0.5-0.1-0.7-0.3C7,16.5,6.9,16.1,7,15.8l1-4c0-0.2,0.1-0.3,0.3-0.5l9.5-9.5c1.2-1.2,3.3-1.2,4.4,0
			c0.6,0.6,0.9,1.4,0.9,2.2s-0.3,1.6-0.9,2.2l-9.5,9.5c-0.1,0.1-0.3,0.2-0.5,0.3l-4,1C8.2,17,8.1,17,8,17z M9.9,12.5l-0.5,2.1
			l2.1-0.5l9.3-9.3C21,4.6,21.1,4.3,21.1,4S21,3.4,20.8,3.2c-0.4-0.4-1.2-0.4-1.6,0c0,0,0,0,0,0L9.9,12.5z M18.5,2.5L18.5,2.5
			L18.5,2.5z"/>
	</g>
</g>
</svg>
