<?xml version="1.0" encoding="utf-8"?>
<!-- Generator: Adobe Illustrator 23.0.1, SVG Export Plug-In . SVG Version: 6.00 Build 0)  -->
<svg version="1.1" id="Camada_1" xmlns="http://www.w3.org/2000/svg" xmlns:xlink="http://www.w3.org/1999/xlink" x="0px" y="0px"
	 viewBox="0 0 23 22" style="enable-background:new 0 0 23 22;" xml:space="preserve">
<g>
	<g>
		<path d="M11.5,15.7c-2.7,0-4.8-2.1-4.8-4.7s2.2-4.7,4.8-4.7s4.8,2.1,4.8,4.7S14.2,15.7,11.5,15.7z M11.5,8.3
			c-1.6,0-2.8,1.2-2.8,2.7c0,1.5,1.3,2.7,2.8,2.7s2.8-1.2,2.8-2.7C14.3,9.5,13.1,8.3,11.5,8.3z"/>
	</g>
	<g>
		<path d="M11.5,21.2c-0.1,0-0.1,0-0.2,0c-2.4,0-4.7-0.9-6.5-2.3c-1.8-1.4-3.1-3.5-3.6-5.7C0.7,10.9,1,8.5,2,6.5
			c1.1-2,2.8-3.7,5-4.7c2.1-1,4.6-1.2,6.9-0.7c2.3,0.5,4.4,1.8,5.9,3.6c1.5,1.8,2.3,4,2.3,6.3v0.9c0,1-0.4,2-1.2,2.7
			c-1.5,1.4-4,1.4-5.4,0c-0.7-0.7-1.2-1.7-1.2-2.7V7.3c0-0.6,0.4-1,1-1s1,0.4,1,1v4.6c0,0.5,0.2,0.9,0.5,1.2c0.7,0.7,2,0.7,2.7,0
			c0.3-0.3,0.5-0.8,0.5-1.2V11c0-1.8-0.7-3.6-1.8-5.1C17,4.5,15.3,3.5,13.5,3c-1.9-0.4-3.9-0.2-5.6,0.6c-1.7,0.8-3.2,2.1-4,3.8
			C2.9,9,2.7,10.9,3.1,12.7c0.4,1.8,1.4,3.4,2.9,4.6c1.5,1.2,3.4,1.8,5.3,1.9c1.9,0,3.8-0.6,5.4-1.7c0.4-0.3,1.1-0.2,1.4,0.2
			c0.3,0.4,0.2,1.1-0.2,1.4C16.1,20.4,13.8,21.2,11.5,21.2z"/>
	</g>
</g>
</svg>
