<?xml version="1.0" encoding="utf-8"?>
<!-- Generator: Adobe Illustrator 23.0.1, SVG Export Plug-In . SVG Version: 6.00 Build 0)  -->
<svg version="1.1" id="Camada_1" xmlns="http://www.w3.org/2000/svg" xmlns:xlink="http://www.w3.org/1999/xlink" x="0px" y="0px"
	 viewBox="0 0 21 21" style="enable-background:new 0 0 21 21;" xml:space="preserve">
<g>
	<g>
		<path d="M10.5,18.5c-0.6,0-1-0.4-1-1V8.8c0-0.6,0.4-1,1-1c0.6,0,1,0.4,1,1v8.8C11.5,18.1,11.1,18.5,10.5,18.5z"/>
	</g>
	<g>
		<path d="M15.8,18.5c-0.6,0-1-0.4-1-1v-14c0-0.6,0.4-1,1-1s1,0.4,1,1v14C16.8,18.1,16.3,18.5,15.8,18.5z"/>
	</g>
	<g>
		<path d="M5.3,18.5c-0.6,0-1-0.4-1-1V14c0-0.6,0.4-1,1-1s1,0.4,1,1v3.5C6.3,18.1,5.8,18.5,5.3,18.5z"/>
	</g>
</g>
</svg>
