<?xml version="1.0" encoding="utf-8"?>
<!-- Generator: Adobe Illustrator 23.0.1, SVG Export Plug-In . SVG Version: 6.00 Build 0)  -->
<svg version="1.1" id="Camada_1" xmlns="http://www.w3.org/2000/svg" xmlns:xlink="http://www.w3.org/1999/xlink" x="0px" y="0px"
	 viewBox="0 0 24 24" style="enable-background:new 0 0 24 24;" xml:space="preserve">
<g>
	<g>
		<path d="M12,21c-7.5,0-11.7-8.2-11.9-8.6c-0.1-0.3-0.1-0.6,0-0.9C1.4,9.1,3.2,7,5.5,5.3C5.9,5,6.4,5,6.8,5.4l3.8,3.8c0,0,0,0,0,0
			l4.2,4.2c0,0,0,0,0,0l3.8,3.8c0.2,0.2,0.3,0.5,0.3,0.8s-0.2,0.6-0.4,0.7C16.7,20.2,14.4,21,12,21z M2.1,12c0.9,1.6,4.5,7,9.9,7
			c1.5,0,3-0.4,4.4-1.2L14,15.5c-0.2,0.1-0.3,0.2-0.5,0.3c-0.5,0.2-1,0.3-1.6,0.3c-0.5,0-1.1-0.1-1.6-0.3c-0.5-0.2-0.9-0.5-1.3-0.9
			s-0.7-0.8-0.9-1.3c-0.2-0.5-0.3-1-0.3-1.6c0-0.5,0.1-1.1,0.3-1.6c0.1-0.2,0.2-0.3,0.3-0.5L6,7.4C4.4,8.7,3.2,10.2,2.1,12z
			 M10,11.4C10,11.6,9.9,11.8,9.9,12c0,0.3,0,0.5,0.1,0.8s0.2,0.5,0.4,0.7c0.2,0.2,0.4,0.3,0.7,0.4c0.3,0.1,0.5,0.1,0.8,0.1
			c0.2,0,0.4,0,0.6-0.1L10,11.4z M20.8,16.2c-0.3,0-0.5-0.1-0.7-0.3L9.2,4.9C8.9,4.7,8.8,4.3,8.9,4s0.4-0.6,0.7-0.7
			C10.4,3.1,11.2,3,12,3c7.5,0,11.7,8.2,11.9,8.6c0.1,0.3,0.1,0.6,0,0.9c-0.6,1.2-1.4,2.3-2.3,3.4C21.4,16,21.2,16.2,20.8,16.2
			C20.9,16.2,20.9,16.2,20.8,16.2z M12.1,5l8.7,8.7c0.4-0.5,0.8-1.1,1.1-1.7C20.9,10.4,17.4,5,12.1,5z"/>
	</g>
	<g>
		<path d="M23,24c-0.3,0-0.5-0.1-0.7-0.3l-22-22c-0.4-0.4-0.4-1,0-1.4s1-0.4,1.4,0l22,22c0.4,0.4,0.4,1,0,1.4
			C23.5,23.9,23.3,24,23,24z"/>
	</g>
</g>
</svg>
