<?xml version="1.0" encoding="utf-8"?>
<!-- Generator: Adobe Illustrator 23.0.1, SVG Export Plug-In . SVG Version: 6.00 Build 0)  -->
<svg version="1.1" id="Camada_1" xmlns="http://www.w3.org/2000/svg" xmlns:xlink="http://www.w3.org/1999/xlink" x="0px" y="0px"
	 viewBox="0 0 17 17" style="enable-background:new 0 0 17 17;" xml:space="preserve">
<g>
	<path d="M9.9,15.9c-0.2,0-0.3,0-0.4-0.1l-2.8-1.4c-0.3-0.2-0.6-0.5-0.6-0.9V9.2L0.7,2.8C0.4,2.5,0.3,2.1,0.5,1.7
		C0.7,1.4,1,1.1,1.4,1.1h14.2c0.4,0,0.7,0.2,0.9,0.6s0.1,0.8-0.1,1.1l-5.4,6.4v5.7c0,0.3-0.2,0.7-0.5,0.9
		C10.3,15.8,10.1,15.9,9.9,15.9z M8.1,12.8l0.8,0.4V8.8c0-0.2,0.1-0.5,0.2-0.6l4.3-5.1H3.6l4.3,5.1C8,8.4,8.1,8.6,8.1,8.8V12.8z"/>
</g>
</svg>
