<?xml version="1.0" encoding="utf-8"?>
<!-- Generator: Adobe Illustrator 23.0.1, SVG Export Plug-In . SVG Version: 6.00 Build 0)  -->
<svg version="1.1" id="Camada_1" xmlns="http://www.w3.org/2000/svg" xmlns:xlink="http://www.w3.org/1999/xlink" x="0px" y="0px"
	 viewBox="0 0 21 21" style="enable-background:new 0 0 21 21;" xml:space="preserve">
<g>
	<g>
		<path d="M16.6,20.3H4.4c-0.7,0-1.4-0.3-1.9-0.8c-0.5-0.5-0.8-1.2-0.8-1.9V7.9c0-0.3,0.1-0.6,0.4-0.8L9.9,1c0.4-0.3,0.9-0.3,1.2,0
			L19,7.1c0.2,0.2,0.4,0.5,0.4,0.8v9.6c0,0.7-0.3,1.4-0.8,1.9S17.3,20.3,16.6,20.3z M3.6,8.4v9.1c0,0.2,0.1,0.4,0.2,0.5
			c0.1,0.1,0.3,0.2,0.5,0.2h12.3c0.2,0,0.4-0.1,0.5-0.2s0.2-0.3,0.2-0.5V8.4L10.5,3L3.6,8.4z"/>
	</g>
	<g>
		<path d="M13.1,20.3c-0.6,0-1-0.4-1-1v-7.8H8.9v7.8c0,0.6-0.4,1-1,1s-1-0.4-1-1v-8.8c0-0.6,0.4-1,1-1h5.3c0.6,0,1,0.4,1,1v8.8
			C14.1,19.8,13.7,20.3,13.1,20.3z"/>
	</g>
</g>
</svg>
