<svg id="Camada_1" data-name="Camada 1" xmlns="http://www.w3.org/2000/svg" xmlns:xlink="http://www.w3.org/1999/xlink" viewBox="0 0 273.39 330.69">
<defs>
<style>.cls-1{fill:#832b22;}.cls-2{fill:#dd5138;}.cls-3{fill:#cb3527;}.cls-4{fill:#fcfcfc;}.cls-5{fill:#832a22;}.cls-6{fill:#340704;}.cls-7{fill:#fff;}.cls-8{fill:#f1d164;}.cls-9{fill:#d6b5a4;}.cls-10{opacity:0.23;}.cls-11{fill:#161616;}.cls-12{fill:url(#Gradiente_sem_nome_3);}.cls-13{fill:#d1d1d1;}.cls-14{fill:#ca3528;}.cls-black{fill:#000}</style>
<linearGradient id="Gradiente_sem_nome_3" x1="273.2" y1="112.92" x2="289.15" y2="85.3" gradientUnits="userSpaceOnUse"><stop offset="0.11" stop-color="#dd5138"/><stop offset="0.82" stop-color="#832b22"/></linearGradient>
</defs>
<title>Logo</title>
<path class="cls-1" d="M234.38,109.52s-11.2-11.91-4.27-25.33S250,93.09,243.32,108" transform="translate(-113.74 -78)"/>
<path class="cls-2" d="M367.84,238.35S302,315.79,224.59,319.65l-13.45-73.87-.4-2.22c-.53.19-1.08.41-1.64.6-4.92,1.79-9.46,3.28-13.66,4.47l-.18.06c-1.23.35-2.41.68-3.59,1-46.47,12.14-47.35-12.22-61.94-26.81-10-10-15.77-22.92-16-36.7-.17-10.75,6.38-22.42,14.05-33,17-23.35,56.63-43.2,93.15-51.59,28.84-6.64,55.71-6.12,67.91,5.46a19.46,19.46,0,0,1,1.55,1.6C311.7,137.69,333,195.76,367.84,238.35Z" transform="translate(-113.74 -78)"/>
<path class="cls-3" d="M191.68,249.67c-46.48,12.14-47.35-12.21-62-26.81-10-10-15.78-22.92-16-36.7l.51-.08s3.83-17.42,42.58-17.42c23.23,0,31.27,22.75,34.85,40.65C193.59,218.93,191.7,234.28,191.68,249.67Z" transform="translate(-113.74 -78)"/>
<path class="cls-4" d="M160.7,240.13s1.94,5.33,3.88,7.11,5.8,0,5.8,0l-1.93-8.89Z" transform="translate(-113.74 -78)"/>
<polygon class="cls-4" points="46.97 162.28 48.9 154.54 54.71 160.35 46.97 162.28"/>
<path class="cls-5" d="M150.54,206.3c.5,2.15,1.13,4.3,1.82,6.41s1.44,4.2,2.3,6.25a52.75,52.75,0,0,0,6.43,11.6,26.94,26.94,0,0,0,4.58,4.72,16.74,16.74,0,0,0,2.73,1.84,12,12,0,0,0,3,1.19,6.38,6.38,0,0,0,3.16-.06,5.72,5.72,0,0,0,2.63-1.74,12.57,12.57,0,0,0,2.69-5.93l.33,0a13.08,13.08,0,0,1-2.62,6.23,6.32,6.32,0,0,1-2.85,2,6.93,6.93,0,0,1-3.47.13,12.68,12.68,0,0,1-3.23-1.2,17.25,17.25,0,0,1-2.86-1.85,27.32,27.32,0,0,1-4.82-4.79,53.71,53.71,0,0,1-6.62-11.77,77.86,77.86,0,0,1-4.18-12.83Z" transform="translate(-113.74 -78)"/>
<path class="cls-5" d="M162.33,232.21a13.6,13.6,0,0,1,0,3.55,10.84,10.84,0,0,1-1,3.38,7.27,7.27,0,0,1-2.27,2.65,8.59,8.59,0,0,1-3.15,1.4,8.74,8.74,0,0,0,3-1.56,7,7,0,0,0,2-2.67,10.16,10.16,0,0,0,.78-3.26,13.26,13.26,0,0,0-.17-3.34Z" transform="translate(-113.74 -78)"/>
<path class="cls-5" d="M139.8,197.3c1.92,4.5,2,8.78.15,9.57s-4.9-2.22-6.82-6.71c-1.24-2.9,1-3.21,1.3-5,.18-1-.85-2.11-.19-2.39C136.08,191.94,137.87,192.81,139.8,197.3Z" transform="translate(-113.74 -78)"/>
<path class="cls-5" d="M161.56,191.82c1.14,5.22-.05,9.92-2.66,10.49s-5.65-3.2-6.79-8.42,0-9.92,2.65-10.49c1.2-.26.92,3.33,2.07,4.62C158.2,189.54,160.94,189,161.56,191.82Z" transform="translate(-113.74 -78)"/>
<ellipse class="cls-6" cx="128.27" cy="50.01" rx="9.68" ry="11.61"/>
<ellipse class="cls-7" cx="133.43" cy="44.9" rx="3.23" ry="5.58"/>
<path class="cls-8" d="M308.47,106.21l-.93,4.51-1.61,3.68L238.82,98.85c-.31,0-.55-.25-.51-.4v0l.81-3.54,1-4.48.37-1.6c0-.18.35-.25.69-.18l64.62,15,0,0Z" transform="translate(-113.74 -78)"/>
<path class="cls-9" d="M237.87,98.52l-12.79-7.33-2.63-1.51,3-.2,14.83-1c.14,0,.28.09.25.2l-2.25,9.73C238.28,98.58,238.05,98.62,237.87,98.52Z" transform="translate(-113.74 -78)"/>
<g class="cls-10">
<path class="cls-11" d="M307.54,110.72l-1.61,3.68L238.82,98.85c-.31,0-.55-.25-.51-.4v0l.81-3.54Z" transform="translate(-113.74 -78)"/>
</g>
<g class="cls-10">
<path class="cls-11" d="M308.47,106.21l-68.3-15.8.37-1.6c0-.18.35-.25.69-.18l64.62,15,0,0Z" transform="translate(-113.74 -78)"/>
</g>
<polygon class="cls-11" points="111.35 13.19 108.72 11.68 111.74 11.48 111.35 13.19"/>
<path class="cls-12" d="M272.29,112.4s-6.77-19.82,8.42-31.82,18.5,20.92,2.81,34.79" transform="translate(-113.74 -78)"/>
<path class="cls-13" d="M168.13,248a18.84,18.84,0,0,1-1.38-2.36c-.42-.8-.82-1.61-1.21-2.43.43.8.86,1.59,1.31,2.37a19.89,19.89,0,0,0,1.46,2.26Z" transform="translate(-113.74 -78)"/>
<path class="cls-14" d="M240.92,229c-1.37.75-15.79,9.83-29.78,16.75l-.4-2.22c-.53.19-1.08.41-1.64.6-4.92,1.79-9.46,3.28-13.66,4.47C198.11,247.66,227.06,235.93,240.92,229Z" transform="translate(-113.74 -78)"/>
<path class="cls-black" d="M183.88,342.45a5.62,5.62,0,0,0-3.48-2.3,5.2,5.2,0,0,0-4.17,1.15,8.3,8.3,0,0,0-2.95,3.84,13,13,0,0,0-.85,4.71c0,1.61,0,3.37,0,5.27s0,3.67,0,5.3a13.15,13.15,0,0,1-1,4.82,8.81,8.81,0,0,1-2.93,3.83,10.39,10.39,0,0,1-8.94,1.7q-5.06-1.17-8.88-6.34t-3.84-9.81c0-3.11.91-5.35,2.78-6.73a7.08,7.08,0,0,1,5.61-1.57,7.54,7.54,0,0,1,4.76,3.14A7.63,7.63,0,0,1,161,351a9,9,0,0,0-5.12,1.79A7.09,7.09,0,0,0,153,357a5.7,5.7,0,0,0,1.11,4.85,7.51,7.51,0,0,0,4,2.94,4.6,4.6,0,0,0,4.2-.72,6.73,6.73,0,0,0,2.51-3.47,12.67,12.67,0,0,0,.52-4.41c-.08-1.54-.14-3.24-.17-5.12s0-3.66.15-5.35a13.54,13.54,0,0,1,1.48-5.12,12.36,12.36,0,0,1,3.76-4.41,9.66,9.66,0,0,1,8.47-1.81q4.5,1.13,8.13,6t3.31,9.05c-.22,2.77-1.15,4.77-2.81,6a7.32,7.32,0,0,1-5.36,1.51,7,7,0,0,1-4.88-3.05,11.2,11.2,0,0,1-1.17-1.92,8.27,8.27,0,0,0,6.1-1.35,5.91,5.91,0,0,0,2.66-4.05A5.67,5.67,0,0,0,183.88,342.45Z" transform="translate(-113.74 -78)"/>
<path class="cls-black" d="M195.1,355.75a14.33,14.33,0,0,1,1.62-2.7,83.07,83.07,0,0,0,12,6.19A77.42,77.42,0,0,0,224.57,364q-3.42,5.72-9,4-1.77-.48-5.36-1.75-.7,1.35-6.8,11.44a141.19,141.19,0,0,0-7.85,14.16,17.61,17.61,0,0,0-1.76,5.92c-2.41-1.86-3.85-3.59-4.34-5.18a7,7,0,0,1,.38-5A114.59,114.59,0,0,1,195.86,377q4.94-8.1,7.43-13.25c-2.63-1-5.19-2-7.68-3.08Q193.42,359.66,195.1,355.75Z" transform="translate(-113.74 -78)"/>
<path class="cls-black" d="M259.4,368.06a5.17,5.17,0,0,1,.4,1.62c0,.49,0,1.37-.08,2.65s-.92,5.8-2.53,13.56a134.32,134.32,0,0,0-2.69,16.34c-.19,3.13-.07,5.29.35,6.46q-4.35-1.41-5.85-3.4a7.93,7.93,0,0,1-1.3-5.37c.05-.69.09-1.23.15-1.61q-5.28,9.07-13.49,8.59a7.62,7.62,0,0,1-6.37-3.38q-2-3.12-1.61-9.61a129.51,129.51,0,0,1,2-13.23q1.74-9.54,1.91-12.42a13.6,13.6,0,0,0-.31-4.48q4.25,1.35,5.78,3.24a7.21,7.21,0,0,1,1.33,5.14,81.31,81.31,0,0,1-1.65,10.27,81.74,81.74,0,0,0-1.72,11.37q-.26,4.33.88,6.23a4,4,0,0,0,3.37,2,7.52,7.52,0,0,0,5.29-2q5.37-4.53,7.75-18.15v-.1a102.58,102.58,0,0,0,1.46-10.55q.21-3.37.16-6.09a13.46,13.46,0,0,1,5.69,1.59A2.8,2.8,0,0,1,259.4,368.06Z" transform="translate(-113.74 -78)"/>
<path class="cls-black" d="M277.8,365.57a20.19,20.19,0,0,1,8-4,13.21,13.21,0,0,1,12.23,3.18q5.2,4.69,7,13.08a25.25,25.25,0,0,1-.44,13.08,18.8,18.8,0,0,1-7.92,10.48,20.79,20.79,0,0,1-6.91,2.81,26.56,26.56,0,0,1-7.13.62,19.14,19.14,0,0,1-5-.74l-1.66-.55q0-.4-.51-7.82A188.07,188.07,0,0,0,272,368.1a16.29,16.29,0,0,0-1.94-5.54Q275.78,362.82,277.8,365.57Zm5.43,35.24a12.39,12.39,0,0,0,4.59-.18,11.46,11.46,0,0,0,7-4.49,16.75,16.75,0,0,0,3.19-8,26.75,26.75,0,0,0-.42-9.06q-1.39-6.51-5.08-10a8.89,8.89,0,0,0-8.42-2.5,13.77,13.77,0,0,0-5,2q.66,3.11,2,15.91T283.23,400.81Z" transform="translate(-113.74 -78)"/>
<path class="cls-black" d="M348.09,376.25a3.6,3.6,0,0,1-2.77.9,7.86,7.86,0,0,1-3-1.41q-1.68-1.17-8.29-6.87a6.26,6.26,0,0,1-2.41,3.27l-6.9,5.63a103.57,103.57,0,0,0,4.61,13.82q-5.06,1.61-6.4-.17-.6-.8-2.07-7.71T317.54,368q-1.87-8.79-3-12.56l-.8-2.59a22.69,22.69,0,0,0-3.22-.89,10.29,10.29,0,0,1,2.21-2.46,10.46,10.46,0,0,1,1.95-1.22,4.48,4.48,0,0,1,1.71-.42,11.94,11.94,0,0,1,1.61.05,5.12,5.12,0,0,1,1.74.61c.66.35,1.23.68,1.72,1a21.48,21.48,0,0,1,1.93,1.38c.8.62,1.47,1.16,2,1.63s1.32,1.14,2.29,2,1.93,1.66,2.87,2.43,2.67,2.27,5.23,4.49,4.49,3.86,5.81,4.93a51.1,51.1,0,0,0,4.72,3.38,20.93,20.93,0,0,0,4.81,2.42A12.11,12.11,0,0,1,348.09,376.25Zm-28.28-19.36q.42,1.77,1.74,7.59t2.2,9.22l8.49-6.45Q323.5,359.77,319.81,356.89Z" transform="translate(-113.74 -78)"/>
<path class="cls-black" d="M335.43,329.25a22.08,22.08,0,0,1,4,3.32q7.93,7.64,13.06,10.52a10.49,10.49,0,0,0,3.34,1.39q-2.54,2.7-4.76,3a8,8,0,0,1-5-1.25,54.5,54.5,0,0,1-7.78-5.87,56,56,0,0,0-7.45-5.69,25.22,25.22,0,0,0-3.23-1.63,9.84,9.84,0,0,1,3.49-3.71A4,4,0,0,1,335.43,329.25Zm20.3,24.08a13.84,13.84,0,0,1,1.36-3.47q1.89-3.36,4.7-1.77a21.56,21.56,0,0,1,3.4,3,13.76,13.76,0,0,1-1.36,3.48c-1.26,2.23-2.83,2.83-4.7,1.77A21.83,21.83,0,0,1,355.73,353.33Z" transform="translate(-113.74 -78)"/>
<path class="cls-2" d="M359.88,228.06s12.74,13.06,27.24,11.85c0,0-15.7,21.75-38.66,23,2.41,10.88,16.91,19.34,16.91,19.34C342.42,287,329.13,275,329.13,275c-3.63,8.46,7.25,30.2,7.25,30.2-10.88-2.41-20.54-16.91-20.54-16.91,1.2,10.87-7.25,35-7.25,35,1.2-6-12.09-26.58-12.09-26.58-9.66,21.75-36.25,33.83-36.25,33.83,3.63-7.25,1.21-18.13,1.21-18.13-16.91,13.29-41.08,20.54-41.08,20.54,4.84-4.83,2.53-22.48,2.53-22.48" transform="translate(-113.74 -78)"/>
</svg>