<?xml version="1.0" encoding="utf-8"?>
<!-- Generator: Adobe Illustrator 23.0.1, SVG Export Plug-In . SVG Version: 6.00 Build 0)  -->
<svg version="1.1" id="Camada_1" xmlns="http://www.w3.org/2000/svg" xmlns:xlink="http://www.w3.org/1999/xlink" x="0px" y="0px"
	 viewBox="0 0 23 23" style="enable-background:new 0 0 23 23;" xml:space="preserve">
<g>
	<g>
		<path d="M18.2,22.1H4.8c-1.6,0-2.9-1.3-2.9-2.9v-6.7c0-1.6,1.3-2.9,2.9-2.9h13.4c1.6,0,2.9,1.3,2.9,2.9v6.7
			C21.1,20.8,19.8,22.1,18.2,22.1z M4.8,11.5c-0.5,0-0.9,0.4-0.9,0.9v6.7c0,0.5,0.4,0.9,0.9,0.9h13.4c0.5,0,0.9-0.4,0.9-0.9v-6.7
			c0-0.5-0.4-0.9-0.9-0.9H4.8z"/>
	</g>
	<g>
		<path d="M16.3,11.5c-0.6,0-1-0.4-1-1V6.7c0-1-0.4-2-1.1-2.7c-1.4-1.4-3.9-1.4-5.4,0C8.1,4.7,7.7,5.7,7.7,6.7v3.8c0,0.6-0.4,1-1,1
			s-1-0.4-1-1V6.7c0-1.5,0.6-3,1.7-4.1c1.1-1.1,2.5-1.7,4.1-1.7c1.5,0,3,0.6,4.1,1.7c1.1,1.1,1.7,2.5,1.7,4.1v3.8
			C17.3,11.1,16.8,11.5,16.3,11.5z"/>
	</g>
</g>
</svg>
