<?xml version="1.0" encoding="utf-8"?>
<!-- Generator: Adobe Illustrator 23.0.1, SVG Export Plug-In . SVG Version: 6.00 Build 0)  -->
<svg version="1.1" id="Camada_1" xmlns="http://www.w3.org/2000/svg" xmlns:xlink="http://www.w3.org/1999/xlink" x="0px" y="0px"
	 viewBox="0 0 31 31" style="enable-background:new 0 0 31 31;" xml:space="preserve">
<g>
	<g>
		<path d="M12.9,26.8H7.8c-0.6,0-1-0.4-1-1V5.2c0-0.6,0.4-1,1-1h5.2c0.6,0,1,0.4,1,1v20.7C13.9,26.4,13.5,26.8,12.9,26.8z M8.8,24.8
			h3.2V6.2H8.8V24.8z"/>
	</g>
	<g>
		<path d="M23.3,26.8h-5.2c-0.6,0-1-0.4-1-1V5.2c0-0.6,0.4-1,1-1h5.2c0.6,0,1,0.4,1,1v20.7C24.3,26.4,23.8,26.8,23.3,26.8z
			 M19.1,24.8h3.2V6.2h-3.2V24.8z"/>
	</g>
</g>
</svg>
