<?xml version="1.0" encoding="utf-8"?>
<!-- Generator: Adobe Illustrator 23.0.1, SVG Export Plug-In . SVG Version: 6.00 Build 0)  -->
<svg version="1.1" id="Camada_1" xmlns="http://www.w3.org/2000/svg" xmlns:xlink="http://www.w3.org/1999/xlink" x="0px" y="0px"
	 viewBox="0 0 31 31" style="enable-background:new 0 0 31 31;" xml:space="preserve">
<g>
	<g>
		<path d="M7.8,24.3c-0.3,0-0.5-0.1-0.7-0.3c-0.4-0.4-0.4-1,0-1.4L22.5,7c0.4-0.4,1-0.4,1.4,0s0.4,1,0,1.4L8.5,24
			C8.3,24.2,8,24.3,7.8,24.3z"/>
	</g>
	<g>
		<path d="M23.3,24.3c-0.3,0-0.5-0.1-0.7-0.3L7,8.5C6.7,8.1,6.7,7.4,7,7s1-0.4,1.4,0L24,22.5c0.4,0.4,0.4,1,0,1.4
			C23.8,24.2,23.5,24.3,23.3,24.3z"/>
	</g>
</g>
</svg>
