<?xml version="1.0" encoding="utf-8"?>
<!-- Generator: Adobe Illustrator 23.0.1, SVG Export Plug-In . SVG Version: 6.00 Build 0)  -->
<svg version="1.1" id="Camada_1" xmlns="http://www.w3.org/2000/svg" xmlns:xlink="http://www.w3.org/1999/xlink" x="0px" y="0px"
	 viewBox="0 0 21 20" style="enable-background:new 0 0 21 20;" xml:space="preserve">
<g>
	<g>
		<path d="M10.5,19.3c-5.4,0-9.8-4.2-9.8-9.3c0-5.1,4.4-9.3,9.8-9.3s9.8,4.2,9.8,9.3C20.3,15.1,15.9,19.3,10.5,19.3z M10.5,2.7
			C6.2,2.7,2.8,6,2.8,10c0,4,3.5,7.3,7.8,7.3s7.8-3.3,7.8-7.3C18.3,6,14.8,2.7,10.5,2.7z"/>
	</g>
	<g>
		<path d="M14,12.7c-0.1,0-0.3,0-0.4-0.1l-3.5-1.7c-0.3-0.2-0.6-0.5-0.6-0.9V5c0-0.6,0.4-1,1-1c0.6,0,1,0.4,1,1v4.4l2.9,1.4
			c0.5,0.2,0.7,0.8,0.5,1.3C14.7,12.5,14.4,12.7,14,12.7z"/>
	</g>
</g>
</svg>
