<?xml version="1.0" encoding="utf-8"?>
<!-- Generator: Adobe Illustrator 23.0.1, SVG Export Plug-In . SVG Version: 6.00 Build 0)  -->
<svg version="1.1" id="Camada_1" xmlns="http://www.w3.org/2000/svg" xmlns:xlink="http://www.w3.org/1999/xlink" x="0px" y="0px"
	 viewBox="0 0 19 19" style="enable-background:new 0 0 19 19;" xml:space="preserve">
<g>
	<g>
		<path d="M9.5,12.1c-0.3,0-0.5-0.1-0.7-0.3L6.4,9.4C6,9,6,8.4,6.4,8s1-0.4,1.4,0l1.7,1.7l7.2-7.2c0.4-0.4,1-0.4,1.4,0s0.4,1,0,1.4
			l-7.9,7.9C10,12,9.8,12.1,9.5,12.1z"/>
	</g>
	<g>
		<path d="M15,17.6H4c-0.7,0-1.3-0.3-1.8-0.8c-0.5-0.5-0.8-1.1-0.8-1.8V4c0-0.7,0.3-1.3,0.8-1.8C2.6,1.6,3.3,1.4,4,1.4h8.7
			c0.6,0,1,0.4,1,1s-0.4,1-1,1H4c-0.2,0-0.3,0.1-0.4,0.2C3.4,3.7,3.4,3.8,3.4,4V15c0,0.2,0.1,0.3,0.2,0.4c0.1,0.1,0.3,0.2,0.4,0.2
			H15c0.2,0,0.3-0.1,0.4-0.2s0.2-0.3,0.2-0.4V9.5c0-0.6,0.4-1,1-1s1,0.4,1,1V15c0,0.7-0.3,1.3-0.8,1.8S15.7,17.6,15,17.6z"/>
	</g>
</g>
</svg>
