<?xml version="1.0" encoding="utf-8"?>
<!-- Generator: Adobe Illustrator 23.0.1, SVG Export Plug-In . SVG Version: 6.00 Build 0)  -->
<svg version="1.1" id="Camada_1" xmlns="http://www.w3.org/2000/svg" xmlns:xlink="http://www.w3.org/1999/xlink" x="0px" y="0px"
	 viewBox="0 0 26 24" style="enable-background:new 0 0 26 24;" xml:space="preserve">
<g>
	<g>
		<path d="M22.3,7H3.2c-0.6,0-1-0.4-1-1s0.4-1,1-1h19.1c0.6,0,1,0.4,1,1S22.9,7,22.3,7z"/>
	</g>
	<g>
		<path d="M18.1,23H7.4c-0.8,0-1.6-0.3-2.2-0.9c-0.6-0.6-0.9-1.3-0.9-2.1V6c0-0.6,0.4-1,1-1h2.2V4c0-0.8,0.3-1.6,0.9-2.1
			C9,1.3,9.8,1,10.6,1h4.3c0.8,0,1.6,0.3,2.2,0.9C17.7,2.4,18,3.2,18,4v1h2.2c0.6,0,1,0.4,1,1v14c0,0.8-0.3,1.6-0.9,2.1
			C19.7,22.7,18.9,23,18.1,23z M6.3,7v13c0,0.3,0.1,0.5,0.3,0.7C6.8,20.9,7.1,21,7.4,21h10.6c0.3,0,0.6-0.1,0.8-0.3
			c0.2-0.2,0.3-0.4,0.3-0.7V7H6.3z M9.5,5H16V4c0-0.3-0.1-0.5-0.3-0.7C15.5,3.1,15.2,3,14.9,3h-4.3C10.3,3,10,3.1,9.8,3.3
			C9.6,3.5,9.5,3.7,9.5,4V5z"/>
	</g>
	<g>
		<path d="M10.6,18c-0.6,0-1-0.4-1-1v-6c0-0.6,0.4-1,1-1s1,0.4,1,1v6C11.6,17.6,11.2,18,10.6,18z"/>
	</g>
	<g>
		<path d="M14.9,18c-0.6,0-1-0.4-1-1v-6c0-0.6,0.4-1,1-1s1,0.4,1,1v6C15.9,17.6,15.4,18,14.9,18z"/>
	</g>
</g>
</svg>
