<?xml version="1.0" encoding="utf-8"?>
<!-- Generator: Adobe Illustrator 23.0.1, SVG Export Plug-In . SVG Version: 6.00 Build 0)  -->
<svg version="1.1" id="Camada_1" xmlns="http://www.w3.org/2000/svg" xmlns:xlink="http://www.w3.org/1999/xlink" x="0px" y="0px"
	 viewBox="0 0 23 23" style="enable-background:new 0 0 23 23;" xml:space="preserve">
<g>
	<g>
		<path d="M19.2,21.1c-0.6,0-1-0.4-1-1v-1.9c0-0.8-0.3-1.5-0.8-2c-0.5-0.5-1.3-0.8-2-0.8H7.7c-0.7,0-1.5,0.3-2,0.8
			c-0.5,0.5-0.8,1.2-0.8,2v1.9c0,0.6-0.4,1-1,1s-1-0.4-1-1v-1.9c0-1.3,0.5-2.5,1.4-3.4s2.1-1.4,3.4-1.4h7.7c1.3,0,2.5,0.5,3.4,1.4
			c0.9,0.9,1.4,2.1,1.4,3.4v1.9C20.2,20.7,19.7,21.1,19.2,21.1z"/>
	</g>
	<g>
		<path d="M11.5,11.5c-2.7,0-4.8-2.2-4.8-4.8s2.2-4.8,4.8-4.8s4.8,2.2,4.8,4.8S14.2,11.5,11.5,11.5z M11.5,3.9
			c-1.6,0-2.8,1.3-2.8,2.8c0,1.6,1.3,2.8,2.8,2.8s2.8-1.3,2.8-2.8C14.3,5.1,13.1,3.9,11.5,3.9z"/>
	</g>
</g>
</svg>
